# xmcd
#
# Track frame offsets:
#	150
#	16861
#	38277
#	53579
#	64823
#	75599
#	90774
#	105901
#	120295
#	135721
#	151351
#	165319
#	176584
#	189508
#	199725
#	213679
#	228247
#	244429
#
# Disc length: 3568 seconds
#
# Revision: 0
# Processed by: cddbd v1.5.2PL0 Copyright (c) Steve Scherf et al.
# Submitted via: dBpowerAMP V4.0
#
DISCID=d30dee12
DTITLE=Various Artist - Hollands GOUD
DYEAR=1900
DGENRE=
TTITLE0=De Sjonnies - Dans je de hele nacht met mij
TTITLE1=Doble R - Zullen we maar weer
TTITLE2=Dolf Brouwers - Oh wat is het toch fijn
TTITLE3=Johnny Hoes - En van je hoempapa
TTITLE4=The Sunstreams - Lieve Frans, ik schrijf je hier
TTITLE5=Gebroeders Grimm - Ammenooitniet
TTITLE6=Ria Valk - Worstjes op m'n borstjes
TTITLE7=New Four - In ons stamcafé
TTITLE8=Eddy Christiani - Ik wou dat ik naar huis toe wou
TTITLE9=Farce Majeur - Dat is uit het leven gegrepen
TTITLE10=De Heikrekels - Lieve meid
TTITLE11=Tony Bass - Wij zijn de jongens van plezier
TTITLE12=Rita Corita - Koffie
TTITLE13=De Deurzakkers - Jij bent 't einde
TTITLE14=De Spelbrekers - Oh wat ben je mooi
TTITLE15=Karel Thiel - Mien waar is m'n feestneus
TTITLE16=Mannenkoor Karrespoor - Mooi man
TTITLE17=Meneer en Mevrouw De Bok
EXTD=
EXTT0=
EXTT1=
EXTT2=
EXTT3=
EXTT4=
EXTT5=
EXTT6=
EXTT7=
EXTT8=
EXTT9=
EXTT10=
EXTT11=
EXTT12=
EXTT13=
EXTT14=
EXTT15=
EXTT16=
EXTT17=
PLAYORDER=
